HIERARCHY
ROOT hip
{
	OFFSET 0.000000 0.000000 0.000000
	CHANNELS 6 Xposition Yposition Zposition Xrotation Zrotation Yrotation 
	JOINT abdomen
	{
		OFFSET 0.000000 3.422050 0.000000
		CHANNELS 3 Xrotation Zrotation Yrotation 
		JOINT chest
		{
			OFFSET 0.000000 8.486693 -0.684411
			CHANNELS 3 Xrotation Zrotation Yrotation 
			JOINT neck
			{
				OFFSET 0.000000 10.266162 -0.273764
				CHANNELS 3 Xrotation Zrotation Yrotation 
				JOINT head
				{
					OFFSET 0.000000 3.148285 0.000000
					CHANNELS 3 Xrotation Zrotation Yrotation 
					End Site
					{
						OFFSET 0.000000 3.148289 0.000000
					}
				}
			}
			JOINT lCollar
			{
				OFFSET 3.422053 6.707223 -0.821293
				CHANNELS 3 Yrotation Zrotation Xrotation 
				JOINT lShldr
				{
					OFFSET 3.285171 0.000000 0.000000
					CHANNELS 3 Zrotation Yrotation Xrotation 
					JOINT lForeArm
					{
						OFFSET 10.129278 0.000000 0.000000
						CHANNELS 3 Yrotation Zrotation Xrotation 
						JOINT lHand
						{
							OFFSET 8.486692 0.000000 0.000000
							CHANNELS 3 Zrotation Yrotation Xrotation 
							End Site
							{
								OFFSET 4.106464 0.000000 0.000000
							}
						}
					}
				}
			}
			JOINT rCollar
			{
				OFFSET -3.558935 6.707223 -0.821293
				CHANNELS 3 Yrotation Zrotation Xrotation 
				JOINT rShldr
				{
					OFFSET -3.148289 0.000000 0.000000
					CHANNELS 3 Zrotation Yrotation Xrotation 
					JOINT rForeArm
					{
						OFFSET -10.266159 0.000000 0.000000
						CHANNELS 3 Yrotation Zrotation Xrotation 
						JOINT rHand
						{
							OFFSET -8.349810 0.000000 0.000000
							CHANNELS 3 Zrotation Yrotation Xrotation 
							End Site
							{
								OFFSET -4.106464 0.000000 0.000000
							}
						}
					}
				}
			}
		}
	}
	JOINT lThigh
	{
		OFFSET 5.338403 -1.642589 1.368821
		CHANNELS 3 Xrotation Zrotation Yrotation 
		JOINT lShin
		{
			OFFSET -2.053232 -20.121670 0.000000
			CHANNELS 3 Xrotation Zrotation Yrotation 
			JOINT lFoot
			{
				OFFSET 0.000000 -19.300380 -1.231939
				CHANNELS 3 Xrotation Yrotation Zrotation 
				End Site
				{
					OFFSET 0.000000 -2.463878 4.653993
				}
			}
		}
	}
	JOINT rThigh
	{
		OFFSET -5.338403 -1.642589 1.368821
		CHANNELS 3 Xrotation Zrotation Yrotation 
		JOINT rShin
		{
			OFFSET 2.053232 -20.121670 0.000000
			CHANNELS 3 Xrotation Zrotation Yrotation 
			JOINT rFoot
			{
				OFFSET 0.000000 -19.300380 -1.231939
				CHANNELS 3 Xrotation Yrotation Zrotation 
				End Site
				{
					OFFSET 0.000000 -2.463878 4.653993
				}
			}
		}
	}
}
MOTION
Frames: 8
Frame Time: 0.033264
0.000000 43.528500 0.000000 0.000000 0.000000 0.000000 0.000000 0.000000 0.000000 0.000000 0.000000 0.000000 0.000000 0.000000 0.000000 0.000000 0.000000 0.000000 0.000000 0.000000 0.000000 0.000000 0.000000 0.000000 0.000000 0.000000 0.000000 0.000000 0.000000 0.000000 0.000000 0.000000 0.000000 0.000000 0.000000 0.000000 0.000000 0.000000 0.000000 0.000000 0.000000 0.000000 0.000000 0.000000 0.000000 0.000000 0.000000 0.000000 0.000000 0.000000 0.000000 0.000000 0.000000 0.000000 0.000000 0.000000 0.000000 0.000000 0.000000 0.000000 
19.995884 22.721600 11.561401 120.994522 0.015252 149.985794 1.657853 -0.001660 15.998646 49.568802 -0.001839 4.547522 13.997003 0.000000 0.000000 -0.148625 -0.092672 0.000120 -9.268855 -31.925688 -7.161629 -35.402016 0.980126 54.860874 -9.346672 2.074604 35.871189 8.779165 -6.564515 -16.862625 1.300325 -19.265545 -13.628110 67.716171 -2.854124 54.892570 33.157642 4.889744 35.384552 2.728485 -14.954778 -2.441632 -71.674698 38.161976 5.410370 19.511032 2.933102 0.268350 0.000000 0.000000 0.000000 -72.798004 -53.688099 2.037959 97.990440 -20.083105 27.972939 11.907401 1.325547 -23.617062 
19.995884 22.721600 11.561401 120.994522 0.015252 149.985794 2.709249 -0.001572 15.998513 47.596287 -0.001797 4.547650 13.997024 -0.504994 -0.000035 -0.199726 -0.109344 -0.162447 -8.602455 -33.086094 -6.600166 -34.414574 0.946027 54.882370 -8.855687 1.941154 35.849277 8.714610 -6.876093 -16.306250 1.140756 -19.050234 -12.830918 67.716171 -2.854123 54.892574 33.157646 4.889743 35.384552 2.705612 -15.142236 -1.999317 -71.692177 38.161976 5.410399 19.844246 2.933228 0.268342 0.000000 0.000000 0.000000 -73.965553 -53.400753 2.891163 98.411949 -19.796310 27.797890 11.907401 1.325547 -23.617062 
19.995884 22.721600 11.561401 120.994522 0.015252 149.985794 3.762073 -0.001480 15.998388 45.614178 -0.001751 4.547778 13.997042 -1.010495 -0.000071 -0.250798 -0.126167 -0.325062 -7.911839 -34.243244 -6.013558 -33.425976 0.911520 54.903301 -8.364634 1.807480 35.828487 8.646933 -7.187187 -15.748881 0.978083 -18.836832 -12.033344 67.716171 -2.854126 54.892574 33.157642 4.889744 35.384552 2.681211 -15.329562 -1.556408 -71.709656 38.161983 5.410438 20.177502 2.933354 0.268334 0.000000 0.000000 0.000000 -75.118690 -53.102978 3.729203 98.831863 -19.508221 27.625343 11.907403 1.325547 -23.617064 
19.995884 22.721600 11.561401 120.994522 0.015252 149.985794 4.816147 -0.001387 15.998260 43.623581 -0.001700 4.547904 13.997065 -1.516485 -0.000107 -0.301843 -0.143142 -0.487724 -7.195643 -35.396446 -5.400460 -32.436359 0.876619 54.923653 -7.873528 1.673594 35.808853 8.576126 -7.497746 -15.190508 0.812353 -18.625416 -11.235462 67.716171 -2.854122 54.892574 33.157646 4.889743 35.384552 2.655280 -15.516754 -1.112909 -71.727127 38.161976 5.410468 20.510799 2.933480 0.268327 0.000000 0.000000 0.000000 -76.257164 -52.795071 4.551816 99.250229 -19.218878 27.455299 11.907402 1.325547 -23.617062 
19.995884 22.721600 11.561401 120.994522 0.015252 149.985794 5.871297 -0.001291 15.998137 41.625656 -0.001645 4.548029 13.997087 -2.022944 -0.000143 -0.352858 -0.160268 -0.650433 -6.452429 -36.544941 -4.759439 -31.445877 0.841342 54.943409 -7.382385 1.539515 35.790359 8.502189 -7.807717 -14.631133 0.643616 -18.416056 -10.437339 67.716164 -2.854126 54.892570 33.157642 4.889744 35.384548 2.627815 -15.703778 -0.668826 -71.744606 38.161980 5.410503 20.844124 2.933606 0.268321 0.000000 0.000000 0.000000 -77.380714 -52.477234 5.358788 99.667061 -18.928316 27.287756 11.907399 1.325547 -23.617060 
19.995884 22.721600 11.561401 120.994522 0.015253 149.985794 6.927345 -0.001192 15.998013 39.621586 -0.001584 4.548152 13.997108 -2.529853 -0.000179 -0.403843 -0.177546 -0.813187 -5.680668 -37.687992 -4.088981 -30.454678 0.805701 54.962585 -6.891219 1.405255 35.773022 8.425119 -8.117055 -14.070758 0.471924 -18.208811 -9.639043 67.716171 -2.854124 54.892570 33.157642 4.889743 35.384548 2.598813 -15.890628 -0.224162 -71.762085 38.161976 5.410537 21.177485 2.933733 0.268315 0.000000 0.000000 0.000000 -78.489182 -52.149799 6.149927 100.082336 -18.636555 27.122705 11.907400 1.325547 -23.617060 
19.995884 22.721600 11.561401 120.994522 0.015252 149.985794 7.984111 -0.001092 15.997891 37.612560 -0.001520 4.548274 13.997129 -3.037194 -0.000215 -0.454798 -0.194974 -0.975986 -4.878735 -38.824799 -3.387472 -29.462896 0.769714 54.981129 -6.400042 1.270830 35.756824 8.344914 -8.425708 -13.509391 0.297328 -18.003765 -8.840652 67.716171 -2.854124 54.892570 33.157642 4.889744 35.384552 2.568271 -16.077280 0.221076 -71.779556 38.161980 5.410571 21.510864 2.933859 0.268311 0.000000 0.000000 0.000000 -79.582443 -51.813015 6.925108 100.496094 -18.343630 26.960148 11.907401 1.325547 -23.617062 
